<svg width="188" height="72" viewBox="0 0 188 72" fill="none" xmlns="http://www.w3.org/2000/svg">
<path d="M55.488 53.432C53.312 53.432 51.36 53.048 49.632 52.28C47.904 51.48 46.528 50.408 45.504 49.064C44.512 47.72 43.968 46.232 43.872 44.6H50.64C50.768 45.624 51.264 46.472 52.128 47.144C53.024 47.816 54.128 48.152 55.44 48.152C56.72 48.152 57.712 47.896 58.416 47.384C59.152 46.872 59.52 46.216 59.52 45.416C59.52 44.552 59.072 43.912 58.176 43.496C57.312 43.048 55.92 42.568 54 42.056C52.016 41.576 50.384 41.08 49.104 40.568C47.856 40.056 46.768 39.272 45.84 38.216C44.944 37.16 44.496 35.736 44.496 33.944C44.496 32.472 44.912 31.128 45.744 29.912C46.608 28.696 47.824 27.736 49.392 27.032C50.992 26.328 52.864 25.976 55.008 25.976C58.176 25.976 60.704 26.776 62.592 28.376C64.48 29.944 65.52 32.072 65.712 34.76H59.28C59.184 33.704 58.736 32.872 57.936 32.264C57.168 31.624 56.128 31.304 54.816 31.304C53.6 31.304 52.656 31.528 51.984 31.976C51.344 32.424 51.024 33.048 51.024 33.848C51.024 34.744 51.472 35.432 52.368 35.912C53.264 36.36 54.656 36.824 56.544 37.304C58.464 37.784 60.048 38.28 61.296 38.792C62.544 39.304 63.616 40.104 64.512 41.192C65.44 42.248 65.92 43.656 65.952 45.416C65.952 46.952 65.52 48.328 64.656 49.544C63.824 50.76 62.608 51.72 61.008 52.424C59.44 53.096 57.6 53.432 55.488 53.432ZM79.2923 31.928V44.792C79.2923 45.688 79.5003 46.344 79.9163 46.76C80.3643 47.144 81.1003 47.336 82.1243 47.336H85.2443V53H81.0203C75.3563 53 72.5243 50.248 72.5243 44.744V31.928H69.3563V26.408H72.5243V19.832H79.2923V26.408H85.2443V31.928H79.2923ZM101.886 53.432C99.3256 53.432 97.0216 52.872 94.9736 51.752C92.9256 50.6 91.3096 48.984 90.1256 46.904C88.9736 44.824 88.3976 42.424 88.3976 39.704C88.3976 36.984 88.9896 34.584 90.1736 32.504C91.3896 30.424 93.0376 28.824 95.1176 27.704C97.1976 26.552 99.5176 25.976 102.078 25.976C104.638 25.976 106.958 26.552 109.038 27.704C111.118 28.824 112.75 30.424 113.934 32.504C115.15 34.584 115.758 36.984 115.758 39.704C115.758 42.424 115.134 44.824 113.886 46.904C112.67 48.984 111.006 50.6 108.894 51.752C106.814 52.872 104.478 53.432 101.886 53.432ZM101.886 47.576C103.102 47.576 104.238 47.288 105.294 46.712C106.382 46.104 107.246 45.208 107.886 44.024C108.526 42.84 108.846 41.4 108.846 39.704C108.846 37.176 108.174 35.24 106.83 33.896C105.518 32.52 103.902 31.832 101.982 31.832C100.062 31.832 98.4456 32.52 97.1336 33.896C95.8536 35.24 95.2136 37.176 95.2136 39.704C95.2136 42.232 95.8376 44.184 97.0856 45.56C98.3656 46.904 99.9656 47.576 101.886 47.576ZM127.407 30.536C128.271 29.128 129.391 28.024 130.767 27.224C132.175 26.424 133.775 26.024 135.567 26.024V33.08H133.791C131.679 33.08 130.079 33.576 128.991 34.568C127.935 35.56 127.407 37.288 127.407 39.752V53H120.687V26.408H127.407V30.536ZM173.117 26.024C176.381 26.024 179.005 27.032 180.989 29.048C183.005 31.032 184.013 33.816 184.013 37.4V53H177.293V38.312C177.293 36.232 176.765 34.648 175.709 33.56C174.653 32.44 173.213 31.88 171.389 31.88C169.565 31.88 168.109 32.44 167.021 33.56C165.965 34.648 165.437 36.232 165.437 38.312V53H158.717V38.312C158.717 36.232 158.189 34.648 157.133 33.56C156.077 32.44 154.637 31.88 152.813 31.88C150.957 31.88 149.485 32.44 148.397 33.56C147.341 34.648 146.813 36.232 146.813 38.312V53H140.093V26.408H146.813V29.624C147.677 28.504 148.781 27.624 150.125 26.984C151.501 26.344 153.005 26.024 154.637 26.024C156.717 26.024 158.573 26.472 160.205 27.368C161.837 28.232 163.101 29.48 163.997 31.112C164.861 29.576 166.109 28.344 167.741 27.416C169.405 26.488 171.197 26.024 173.117 26.024Z" fill="#424242"/>
<path d="M26.2779 34.0042H20.1199V19.9654C20.1199 16.6897 18.3064 16.0268 16.0943 18.4836L14.5 20.2579L1.00818 35.2716C-0.845201 37.3189 -0.0679764 38.9958 2.72206 38.9958H8.88007V53.0346C8.88007 56.3103 10.6936 56.9732 12.9057 54.5164L14.5 52.7421L27.9918 37.7284C29.8452 35.6811 29.068 34.0042 26.2779 34.0042Z" fill="url(#paint0_linear_1_23)"/>
<defs>
<linearGradient id="paint0_linear_1_23" x1="14.5" y1="17" x2="14.5" y2="56" gradientUnits="userSpaceOnUse">
<stop stop-color="#FFC122"/>
<stop offset="1" stop-color="#FF1850"/>
</linearGradient>
</defs>
</svg>
