<svg width="99" height="60" viewBox="0 0 99 60" fill="none" xmlns="http://www.w3.org/2000/svg">
<path d="M14.92 38.2V44H11.44C8.96 44 7.02667 43.4 5.64 42.2C4.25333 40.9733 3.56 38.9867 3.56 36.24V27.36H0.84V21.68H3.56V16.24H10.4V21.68H14.88V27.36H10.4V36.32C10.4 36.9867 10.56 37.4667 10.88 37.76C11.2 38.0533 11.7333 38.2 12.48 38.2H14.92ZM29.69 44.32C27.5033 44.32 25.53 43.8533 23.77 42.92C22.0367 41.9867 20.6633 40.6533 19.65 38.92C18.6633 37.1867 18.17 35.16 18.17 32.84C18.17 30.5467 18.6767 28.5333 19.69 26.8C20.7033 25.04 22.09 23.6933 23.85 22.76C25.61 21.8267 27.5833 21.36 29.77 21.36C31.9567 21.36 33.93 21.8267 35.69 22.76C37.45 23.6933 38.8367 25.04 39.85 26.8C40.8633 28.5333 41.37 30.5467 41.37 32.84C41.37 35.1333 40.85 37.16 39.81 38.92C38.7967 40.6533 37.3967 41.9867 35.61 42.92C33.85 43.8533 31.8767 44.32 29.69 44.32ZM29.69 38.4C30.9967 38.4 32.1033 37.92 33.01 36.96C33.9433 36 34.41 34.6267 34.41 32.84C34.41 31.0533 33.9567 29.68 33.05 28.72C32.17 27.76 31.0767 27.28 29.77 27.28C28.4367 27.28 27.33 27.76 26.45 28.72C25.57 29.6533 25.13 31.0267 25.13 32.84C25.13 34.6267 25.5567 36 26.41 36.96C27.29 37.92 28.3833 38.4 29.69 38.4ZM44.4387 32.8C44.4387 30.5067 44.8654 28.4933 45.7187 26.76C46.5987 25.0267 47.7854 23.6933 49.2787 22.76C50.7721 21.8267 52.4387 21.36 54.2787 21.36C55.7454 21.36 57.0787 21.6667 58.2787 22.28C59.5054 22.8933 60.4654 23.72 61.1587 24.76V14.4H67.9988V44H61.1587V40.8C60.5187 41.8667 59.5987 42.72 58.3987 43.36C57.2254 44 55.8521 44.32 54.2787 44.32C52.4387 44.32 50.7721 43.8533 49.2787 42.92C47.7854 41.96 46.5987 40.6133 45.7187 38.88C44.8654 37.12 44.4387 35.0933 44.4387 32.8ZM61.1587 32.84C61.1587 31.1333 60.6787 29.7867 59.7187 28.8C58.7854 27.8133 57.6387 27.32 56.2787 27.32C54.9187 27.32 53.7587 27.8133 52.7987 28.8C51.8654 29.76 51.3987 31.0933 51.3987 32.8C51.3987 34.5067 51.8654 35.8667 52.7987 36.88C53.7587 37.8667 54.9187 38.36 56.2787 38.36C57.6387 38.36 58.7854 37.8667 59.7187 36.88C60.6787 35.8933 61.1587 34.5467 61.1587 32.84ZM83.9072 44.32C81.7205 44.32 79.7472 43.8533 77.9872 42.92C76.2539 41.9867 74.8805 40.6533 73.8672 38.92C72.8805 37.1867 72.3872 35.16 72.3872 32.84C72.3872 30.5467 72.8939 28.5333 73.9072 26.8C74.9205 25.04 76.3072 23.6933 78.0672 22.76C79.8272 21.8267 81.8005 21.36 83.9872 21.36C86.1739 21.36 88.1472 21.8267 89.9072 22.76C91.6672 23.6933 93.0539 25.04 94.0672 26.8C95.0805 28.5333 95.5872 30.5467 95.5872 32.84C95.5872 35.1333 95.0672 37.16 94.0272 38.92C93.0139 40.6533 91.6139 41.9867 89.8272 42.92C88.0672 43.8533 86.0939 44.32 83.9072 44.32ZM83.9072 38.4C85.2139 38.4 86.3205 37.92 87.2272 36.96C88.1605 36 88.6272 34.6267 88.6272 32.84C88.6272 31.0533 88.1739 29.68 87.2672 28.72C86.3872 27.76 85.2939 27.28 83.9872 27.28C82.6539 27.28 81.5472 27.76 80.6672 28.72C79.7872 29.6533 79.3472 31.0267 79.3472 32.84C79.3472 34.6267 79.7739 36 80.6272 36.96C81.5072 37.92 82.6005 38.4 83.9072 38.4Z" fill="white"/>
<path d="M97 21L83.9231 35L80 30.8042" stroke="#00CC6A" stroke-width="3" stroke-linecap="round" stroke-linejoin="round"/>
</svg>
