<svg width="166" height="60" viewBox="0 0 166 60" fill="none" xmlns="http://www.w3.org/2000/svg">
<path d="M22.68 15.92V21.4H15.24V44H8.4V21.4H0.96V15.92H22.68ZM37.0728 44.32C34.8861 44.32 32.9128 43.8533 31.1528 42.92C29.4195 41.9867 28.0461 40.6533 27.0328 38.92C26.0461 37.1867 25.5528 35.16 25.5528 32.84C25.5528 30.5467 26.0595 28.5333 27.0728 26.8C28.0861 25.04 29.4728 23.6933 31.2328 22.76C32.9928 21.8267 34.9661 21.36 37.1528 21.36C39.3395 21.36 41.3128 21.8267 43.0728 22.76C44.8328 23.6933 46.2195 25.04 47.2328 26.8C48.2461 28.5333 48.7528 30.5467 48.7528 32.84C48.7528 35.1333 48.2328 37.16 47.1928 38.92C46.1795 40.6533 44.7795 41.9867 42.9928 42.92C41.2328 43.8533 39.2595 44.32 37.0728 44.32ZM37.0728 38.4C38.3795 38.4 39.4861 37.92 40.3928 36.96C41.3261 36 41.7928 34.6267 41.7928 32.84C41.7928 31.0533 41.3395 29.68 40.4328 28.72C39.5528 27.76 38.4595 27.28 37.1528 27.28C35.8195 27.28 34.7128 27.76 33.8328 28.72C32.9528 29.6533 32.5128 31.0267 32.5128 32.84C32.5128 34.6267 32.9395 36 33.7928 36.96C34.6728 37.92 35.7661 38.4 37.0728 38.4ZM51.8216 32.8C51.8216 30.5067 52.2482 28.4933 53.1016 26.76C53.9816 25.0267 55.1682 23.6933 56.6616 22.76C58.1549 21.8267 59.8216 21.36 61.6616 21.36C63.1282 21.36 64.4616 21.6667 65.6616 22.28C66.8882 22.8933 67.8482 23.72 68.5416 24.76V14.4H75.3816V44H68.5416V40.8C67.9016 41.8667 66.9816 42.72 65.7816 43.36C64.6082 44 63.2349 44.32 61.6616 44.32C59.8216 44.32 58.1549 43.8533 56.6616 42.92C55.1682 41.96 53.9816 40.6133 53.1016 38.88C52.2482 37.12 51.8216 35.0933 51.8216 32.8ZM68.5416 32.84C68.5416 31.1333 68.0616 29.7867 67.1016 28.8C66.1682 27.8133 65.0216 27.32 63.6616 27.32C62.3016 27.32 61.1416 27.8133 60.1816 28.8C59.2482 29.76 58.7816 31.0933 58.7816 32.8C58.7816 34.5067 59.2482 35.8667 60.1816 36.88C61.1416 37.8667 62.3016 38.36 63.6616 38.36C65.0216 38.36 66.1682 37.8667 67.1016 36.88C68.0616 35.8933 68.5416 34.5467 68.5416 32.84ZM91.29 44.32C89.1033 44.32 87.13 43.8533 85.37 42.92C83.6367 41.9867 82.2633 40.6533 81.25 38.92C80.2633 37.1867 79.77 35.16 79.77 32.84C79.77 30.5467 80.2767 28.5333 81.29 26.8C82.3033 25.04 83.69 23.6933 85.45 22.76C87.21 21.8267 89.1833 21.36 91.37 21.36C93.5567 21.36 95.53 21.8267 97.29 22.76C99.05 23.6933 100.437 25.04 101.45 26.8C102.463 28.5333 102.97 30.5467 102.97 32.84C102.97 35.1333 102.45 37.16 101.41 38.92C100.397 40.6533 98.9967 41.9867 97.21 42.92C95.45 43.8533 93.4767 44.32 91.29 44.32ZM91.29 38.4C92.5967 38.4 93.7033 37.92 94.61 36.96C95.5433 36 96.01 34.6267 96.01 32.84C96.01 31.0533 95.5567 29.68 94.65 28.72C93.77 27.76 92.6767 27.28 91.37 27.28C90.0367 27.28 88.93 27.76 88.05 28.72C87.17 29.6533 86.73 31.0267 86.73 32.84C86.73 34.6267 87.1567 36 88.01 36.96C88.89 37.92 89.9833 38.4 91.29 38.4Z" fill="white"/>
<path d="M109.999 42.48H120.439V44H108.199V15.92H109.999V42.48ZM126.247 17.44C125.82 17.44 125.46 17.3067 125.167 17.04C124.874 16.7467 124.727 16.36 124.727 15.88C124.727 15.4267 124.874 15.0533 125.167 14.76C125.46 14.4667 125.82 14.32 126.247 14.32C126.674 14.32 127.034 14.4667 127.327 14.76C127.62 15.0533 127.767 15.4267 127.767 15.88C127.767 16.36 127.62 16.7467 127.327 17.04C127.034 17.3067 126.674 17.44 126.247 17.44ZM127.127 22.28V44H125.327V22.28H127.127ZM141.765 44.32C139.339 44.32 137.352 43.7867 135.805 42.72C134.285 41.6533 133.432 40.1333 133.245 38.16H135.085C135.219 39.5733 135.859 40.6933 137.005 41.52C138.179 42.3467 139.765 42.76 141.765 42.76C143.419 42.76 144.725 42.3467 145.685 41.52C146.672 40.6667 147.165 39.6267 147.165 38.4C147.165 37.5467 146.899 36.8533 146.365 36.32C145.859 35.76 145.219 35.3333 144.445 35.04C143.672 34.7467 142.619 34.4267 141.285 34.08C139.685 33.6533 138.392 33.24 137.405 32.84C136.419 32.4133 135.579 31.7867 134.885 30.96C134.192 30.1333 133.845 29.0267 133.845 27.64C133.845 26.6267 134.152 25.6933 134.765 24.84C135.379 23.96 136.232 23.2667 137.325 22.76C138.419 22.2533 139.659 22 141.045 22C143.312 22 145.139 22.5733 146.525 23.72C147.939 24.84 148.699 26.4 148.805 28.4H147.005C146.925 26.96 146.365 25.7867 145.325 24.88C144.285 23.9733 142.845 23.52 141.005 23.52C139.459 23.52 138.179 23.92 137.165 24.72C136.152 25.52 135.645 26.4933 135.645 27.64C135.645 28.6533 135.925 29.48 136.485 30.12C137.072 30.7333 137.779 31.2133 138.605 31.56C139.459 31.88 140.579 32.2267 141.965 32.6C143.485 33 144.699 33.4 145.605 33.8C146.539 34.1733 147.325 34.7333 147.965 35.48C148.605 36.2 148.925 37.1733 148.925 38.4C148.925 39.52 148.619 40.5333 148.005 41.44C147.392 42.3467 146.539 43.0533 145.445 43.56C144.352 44.0667 143.125 44.32 141.765 44.32ZM157.888 23.84V38.2C157.888 39.8 158.181 40.9067 158.768 41.52C159.355 42.1067 160.395 42.4 161.888 42.4H164.328V44H161.608C159.715 44 158.315 43.56 157.408 42.68C156.528 41.7733 156.088 40.28 156.088 38.2V23.84H152.808V22.28H156.088V16.76H157.888V22.28H164.328V23.84H157.888Z" fill="#505050"/>
<path d="M105 21L91.9231 35L88 30.8042" stroke="#00CC6A" stroke-width="3" stroke-linecap="round" stroke-linejoin="round"/>
</svg>
